<svg xmlns="http://www.w3.org/2000/svg" viewBox="0 0 32 32" fill="none" aria-label="PhoneBurner">
  <defs>
    <linearGradient id="pb-flame" x1="16" y1="2" x2="16" y2="30" gradientUnits="userSpaceOnUse">
      <stop offset="0%" stop-color="#FF8A3D"/>
      <stop offset="55%" stop-color="#F26A21"/>
      <stop offset="100%" stop-color="#C2410C"/>
    </linearGradient>
  </defs>
  <!-- Flame body -->
  <path
    d="M16 2.5c.9 2.6.6 4.6-.9 6 -1.7 1.6-3.4 2.7-4.4 4.7 -1.6 3.2-1.1 6.7 1.1 9.2 -.7-2.4 .1-4.4 1.7-5.6 .2 2 1 3.5 2.4 4.4 -.5-1.4-.3-2.7 .6-3.8 1.4-1.6 3.2-2.6 4.2-4.7 1.5-3.1 .8-6.4-1.6-8.4 .4 1.6-.1 2.9-1.3 3.8 .4-2.2-.4-4.2-1.8-5.6Z"
    fill="url(#pb-flame)"
  />
  <!-- Inner highlight -->
  <path
    d="M15.4 12.8c.6 1.6 .3 3-.7 4.2 1.6-.4 2.7-1.6 3-3.2 -.1 .9-.5 1.6-1.1 2.1 1.5-.9 2.2-2.4 1.9-4 -.4 .9-1 1.4-1.8 1.7 .2-1.2-.3-2.2-1.3-2.9 .3 .8 .2 1.5-.3 2.1Z"
    fill="#FFD7B5"
    opacity="0.85"
  />
</svg>
